<?xml version="1.0" encoding="UTF-8"?><svg id="Ebene_1" xmlns="http://www.w3.org/2000/svg" xmlns:xlink="http://www.w3.org/1999/xlink" viewBox="0 0 1009.88 996.48"><defs><style>.cls-1{fill:url(#Unbenannter_Verlauf_34-2);}.cls-1,.cls-2,.cls-3{stroke-width:0px;}.cls-2{fill:url(#Unbenannter_Verlauf_34-3);}.cls-3{fill:url(#Unbenannter_Verlauf_34);}</style><linearGradient id="Unbenannter_Verlauf_34" x1="15693.33" y1="-15798.32" x2="16468.18" y2="-15590.7" gradientTransform="translate(16709.54 -15483.85) rotate(-180)" gradientUnits="userSpaceOnUse"><stop offset=".2" stop-color="#004b50" stop-opacity="0"/><stop offset=".52" stop-color="rgba(0,75,80,.52)" stop-opacity=".52"/><stop offset=".8" stop-color="rgba(0,75,80,.87)" stop-opacity=".87"/><stop offset=".95" stop-color="#004b50"/></linearGradient><linearGradient id="Unbenannter_Verlauf_34-2" x1="11835.03" y1="-10854.74" x2="12642.76" y2="-10638.31" gradientTransform="translate(-11852.18 11239.77)" xlink:href="#Unbenannter_Verlauf_34"/><linearGradient id="Unbenannter_Verlauf_34-3" x1="15815.24" y1="-16374.38" x2="16590.1" y2="-16166.76" xlink:href="#Unbenannter_Verlauf_34"/></defs><path class="cls-3" d="M333.8,93.11c-63.86,0-115.62,51.77-115.62,115.62s51.77,115.62,115.62,115.62h554.97l50.48-227.35c-10.29-2.54-20.75-3.89-31.07-3.89H333.8Z"/><path class="cls-1" d="M698.91,612.33c63.86,0,115.62-51.77,115.62-115.62s-51.77-115.62-115.62-115.62H135.96l-51.32,231.15c1.56.06,3.11.1,4.66.1h609.61Z"/><path class="cls-2" d="M211.91,669.06c-63.86,0-115.62,51.77-115.62,115.62s51.77,115.62,115.62,115.62h548.98l50.76-228.63c-8.44-1.71-16.95-2.62-25.37-2.62H211.91Z"/></svg>