<?xml version="1.0" encoding="UTF-8"?><svg id="Ebene_1" xmlns="http://www.w3.org/2000/svg" xmlns:xlink="http://www.w3.org/1999/xlink" viewBox="0 0 2100 558.58"><defs><style>.cls-1{fill:url(#Unbenannter_Verlauf_51-2);}.cls-1,.cls-2,.cls-3,.cls-4{stroke-width:0px;}.cls-2{fill:url(#Unbenannter_Verlauf_51-3);}.cls-3{fill:#d3ffb4;}.cls-4{fill:url(#Unbenannter_Verlauf_51);}</style><linearGradient id="Unbenannter_Verlauf_51" x1="8224.55" y1="-13509.15" x2="8389.83" y2="-13464.86" gradientTransform="translate(9579.81 -13387.82) rotate(-180)" gradientUnits="userSpaceOnUse"><stop offset=".2" stop-color="#d3ffb4" stop-opacity="0"/><stop offset=".26" stop-color="rgba(211,255,180,.11)" stop-opacity=".11"/><stop offset=".45" stop-color="rgba(211,255,180,.42)" stop-opacity=".42"/><stop offset=".63" stop-color="rgba(211,255,180,.67)" stop-opacity=".67"/><stop offset=".78" stop-color="rgba(211,255,180,.85)" stop-opacity=".85"/><stop offset=".89" stop-color="rgba(211,255,180,.96)" stop-opacity=".96"/><stop offset=".95" stop-color="#d3ffb4"/></linearGradient><linearGradient id="Unbenannter_Verlauf_51-2" x1="12986.94" y1="-11103.06" x2="13159.23" y2="-11056.89" gradientTransform="translate(-11852.18 11239.77)" xlink:href="#Unbenannter_Verlauf_51"/><linearGradient id="Unbenannter_Verlauf_51-3" x1="8250.55" y1="-13632" x2="8415.83" y2="-13587.71" xlink:href="#Unbenannter_Verlauf_51"/></defs><path class="cls-4" d="M1209.7,74.11c-13.62,0-24.66,11.04-24.66,24.66s11.04,24.66,24.66,24.66h122.52c13.62,0,28.42-11.04,28.42-24.66s-14.8-24.66-28.42-24.66h-122.52Z"/><path class="cls-1" d="M1287.58,184.86c13.62,0,24.66-11.04,24.66-24.66s-11.04-24.66-24.66-24.66h-130.03c-13.62,0-28.42,11.04-28.42,24.66s14.8,24.66,28.42,24.66h130.03Z"/><path class="cls-2" d="M1183.7,196.96c-13.62,0-24.66,11.04-24.66,24.66s11.04,24.66,24.66,24.66h122.52c13.62,0,28.42-11.04,28.42-24.66s-14.8-24.66-28.42-24.66h-122.52Z"/><path class="cls-3" d="M81.77,175.22c0-63.95,46.76-108.23,109.84-108.23,49.48,0,87.27,26.93,88.9,70.94h-61.17c0-14.5-10.6-25.63-29.9-25.63h-1.63c-27.46,0-46.22,28.48-46.22,59.03,0,21.75,9.52,38.06,34.26,38.06h1.9c14.68,0,26.64-7.77,34.53-20.97l1.09-1.81h-36.7l8.43-37.54h62.8c19.85,0,30.45,11.91,26.64,29.26l-16.31,72.5h-43.5l4.08-17.61c-14.14,12.95-32.62,19.94-57.09,19.94-45.4,0-79.93-30.03-79.93-77.93Z"/><path class="cls-3" d="M324.82,69.58h94.61c44.59,0,65.79,21.23,65.79,46.09s-14.95,43.76-46.76,50.75c23.11,3.62,29.36,18.64,25.83,34.18l-11.15,50.23h-59.81l9.52-43.24c2.72-11.39-3.26-17.61-15.77-17.61h-28.82l-13.59,60.85h-60.36l40.51-181.24ZM402.58,147.25c14.68,0,20.93-9.32,20.93-19.16,0-8.29-5.71-14.5-18.76-14.5h-29.91l-7.61,33.66h35.34Z"/><path class="cls-3" d="M583.1,69.58h69.33l33.17,181.24h-58.45l-4.89-34.95h-71.23l-21.48,34.95h-65.25l118.81-181.24ZM616.27,173.15l-7.07-52.3-32.08,52.3h39.15Z"/><path class="cls-3" d="M742.69,69.58h72.05l28.82,112.11,25.01-112.11h55.73l-40.51,181.24h-72.05l-28.82-112.37-25.01,112.37h-55.73l40.51-181.24Z"/><path class="cls-3" d="M954.48,69.58h72.32c57.37,0,94.34,33.4,94.34,81.3,0,56.96-45.67,99.94-107.39,99.94h-99.78l40.51-181.24ZM1015.65,205.51c25.83,0,45.68-23.82,45.68-55.41,0-19.68-12.78-35.21-34.53-35.21h-22.56l-20.39,90.62h31.81Z"/><path class="cls-3" d="M60,307.76h57.09l-1.36,115.22,47.58-115.22h65.25l-4.35,114.44,50.57-114.44h62.53l-87.27,181.24h-72.05l3.53-105.64-43.5,105.64h-72.32l-5.71-181.24Z"/><path class="cls-3" d="M354.98,307.76h59.81l-40.51,181.24h-59.81l40.51-181.24Z"/><path class="cls-3" d="M444.7,307.76h72.05l28.82,112.11,25.01-112.11h55.73l-40.51,181.24h-72.05l-28.82-112.37-25.01,112.37h-55.73l40.51-181.24Z"/><path class="cls-3" d="M700.53,356.95h-65.25l11.15-49.19h190.31l-11.15,49.19h-65.25l-29.36,132.05h-59.81l29.36-132.05Z"/><path class="cls-3" d="M856.59,307.76h157.69l-10.06,45.31h-97.87l-4.89,22.01h81.02l-10.06,44.02h-81.02l-5.44,24.6h100.59l-10.06,45.31h-160.4l40.51-181.24Z"/><path class="cls-3" d="M1040.91,307.76h94.61c44.59,0,65.79,21.23,65.79,46.09s-14.95,43.76-46.76,50.75c23.11,3.62,29.36,18.64,25.83,34.18l-11.15,50.23h-59.81l9.52-43.24c2.72-11.39-3.26-17.61-15.77-17.61h-28.82l-13.59,60.85h-60.36l40.51-181.24ZM1118.67,385.43c14.68,0,20.93-9.32,20.93-19.16,0-8.29-5.71-14.5-18.76-14.5h-29.91l-7.61,33.66h35.34Z"/><path class="cls-3" d="M1277.99,356.95h-65.25l11.15-49.19h190.31l-11.15,49.19h-65.25l-29.36,132.05h-59.81l29.36-132.05Z"/><path class="cls-3" d="M1434.31,307.76h59.81l-14.95,67.32h59.81l14.95-67.32h59.81l-40.51,181.24h-59.81l15.23-68.61h-59.81l-15.22,68.61h-59.81l40.51-181.24Z"/><path class="cls-3" d="M1617.82,416.5l24.2-108.75h59.81l-24.47,109.26c-3.53,15.28,3.26,27.96,23.38,27.96h1.9c19.03,0,25.01-10.62,28.55-25.89l25.01-111.33h59.81l-26.37,117.81c-9.24,41.42-33.98,66.02-91.08,66.02-64.98,0-89.99-33.66-80.75-75.09Z"/><path class="cls-3" d="M1844.56,307.76h94.61c44.59,0,65.79,21.23,65.79,46.09s-14.95,43.76-46.76,50.75c23.11,3.63,29.36,18.64,25.83,34.18l-11.15,50.23h-59.81l9.51-43.24c2.72-11.39-3.26-17.61-15.77-17.61h-28.82l-13.59,60.85h-60.36l40.51-181.24ZM1922.32,385.43c14.68,0,20.93-9.32,20.93-19.16,0-8.29-5.71-14.5-18.76-14.5h-29.91l-7.61,33.66h35.34Z"/><path class="cls-3" d="M82.21,175.22c0-63.95,46.76-108.23,109.84-108.23,49.48,0,87.27,26.93,88.9,70.94h-61.17c0-14.5-10.6-25.63-29.9-25.63h-1.63c-27.46,0-46.22,28.48-46.22,59.03,0,21.75,9.52,38.06,34.26,38.06h1.9c14.68,0,26.64-7.77,34.53-20.97l1.09-1.81h-36.7l8.43-37.54h62.8c19.85,0,30.45,11.91,26.64,29.26l-16.31,72.5h-43.5l4.08-17.61c-14.14,12.95-32.62,19.94-57.09,19.94-45.4,0-79.93-30.03-79.93-77.93Z"/><path class="cls-3" d="M325.26,69.58h94.61c44.59,0,65.79,21.23,65.79,46.09s-14.95,43.76-46.76,50.75c23.11,3.62,29.36,18.64,25.83,34.18l-11.15,50.23h-59.81l9.52-43.24c2.72-11.39-3.26-17.61-15.77-17.61h-28.82l-13.59,60.85h-60.36l40.51-181.24ZM403.01,147.25c14.68,0,20.93-9.32,20.93-19.16,0-8.29-5.71-14.5-18.76-14.5h-29.91l-7.61,33.66h35.34Z"/><path class="cls-3" d="M583.54,69.58h69.33l33.17,181.24h-58.45l-4.89-34.95h-71.23l-21.48,34.95h-65.25l118.81-181.24ZM616.7,173.15l-7.07-52.3-32.08,52.3h39.15Z"/><path class="cls-3" d="M743.12,69.58h72.05l28.82,112.11,25.01-112.11h55.73l-40.51,181.24h-72.05l-28.82-112.37-25.01,112.37h-55.73l40.51-181.24Z"/><path class="cls-3" d="M954.91,69.58h72.32c57.37,0,94.34,33.4,94.34,81.3,0,56.96-45.67,99.94-107.39,99.94h-99.78l40.51-181.24ZM1016.08,205.51c25.83,0,45.68-23.82,45.68-55.41,0-19.68-12.78-35.21-34.53-35.21h-22.56l-20.39,90.62h31.81Z"/><path class="cls-3" d="M1387.93,69.58h82.38c53.29,0,76.67,20.97,76.67,53.6,0,44.02-29.09,71.2-76.4,71.2h-50.84l-12.5,56.44h-59.81l40.51-181.24ZM1465.15,150.36c14.41,0,22.02-10.1,22.02-21.49,0-8.8-5.71-15.28-17.4-15.28h-31.81l-8.43,36.77h35.62Z"/><path class="cls-3" d="M1580.96,69.58h94.61c44.59,0,65.79,21.23,65.79,46.09s-14.95,43.76-46.76,50.75c23.11,3.63,29.36,18.64,25.83,34.18l-11.15,50.23h-59.81l9.52-43.24c2.72-11.39-3.26-17.61-15.77-17.61h-28.82l-13.59,60.85h-60.36l40.51-181.24ZM1658.72,147.25c14.68,0,20.93-9.32,20.93-19.16,0-8.29-5.71-14.5-18.76-14.5h-29.91l-7.61,33.66h35.34Z"/><path class="cls-3" d="M1776.44,69.58h59.81l-40.51,181.24h-59.81l40.51-181.24Z"/><path class="cls-3" d="M1905.03,153.99l-42.96-84.41h65.25l20.39,40.13,38.88-40.13h73.41l-86.73,89.84,46.49,91.4h-65.25l-23.92-47.12-45.67,47.12h-73.41l93.52-96.83Z"/></svg>